<svg width="375" height="203" viewBox="0 0 375 203" fill="none" xmlns="http://www.w3.org/2000/svg">
<path d="M236.036 145.117C237.187 145.168 237.922 145.204 238.24 145.225L296.966 145.211C290.896 155.743 282.615 164.029 272.124 170.07C269.98 171.305 267.48 172.541 264.623 173.778L236.036 145.117ZM236.036 145.117C237.187 145.168 237.922 145.204 238.24 145.225L296.966 145.211C290.896 155.743 282.615 164.029 272.124 170.07C269.98 171.305 267.48 172.541 264.623 173.778M236.036 145.117C237.187 145.168 237.922 145.204 238.24 145.225L296.966 145.211C290.896 155.743 282.615 164.029 272.124 170.07C269.98 171.305 267.48 172.541 264.623 173.778L236.036 145.117ZM236.036 145.117C237.187 145.168 237.922 145.204 238.24 145.225L296.966 145.211C290.896 155.743 282.615 164.029 272.124 170.07C269.98 171.305 267.48 172.541 264.623 173.778M236.036 145.117C237.187 145.168 237.922 145.204 238.24 145.225L296.966 145.211C290.896 155.743 282.615 164.029 272.124 170.07C269.98 171.305 267.48 172.541 264.623 173.778L236.036 145.117Z" fill="#9D4EDD"/>
<path d="M262.177 135.265L260.604 136.783L301.097 136.714C306.805 122.721 307.706 108.436 303.8 93.8607L262.177 135.265Z" fill="#7B2CBF"/>
<path d="M272.225 111.277C272.204 111.595 272.168 112.33 272.117 113.481L300.778 84.894C299.541 82.0374 298.305 79.537 297.07 77.3929C291.029 66.9018 282.743 58.6212 272.211 52.5511L272.225 111.277Z" fill="#5A189A"/>
<path d="M262.265 87.3398C262.474 87.5255 262.98 88.0499 263.783 88.9131L263.714 48.4197C249.721 42.7118 235.436 41.8111 220.861 45.7175L262.265 87.3398Z" fill="#3C096C"/>
<path d="M238.277 77.2918C238.595 77.3127 239.33 77.3486 240.481 77.3996L211.894 48.7395C209.037 49.9765 206.537 51.2124 204.393 52.4471C193.902 58.4882 185.621 66.7744 179.551 77.3057L238.277 77.2918Z" fill="#240046"/>
<path d="M101.978 136.886C109.273 136.886 114.319 134.057 117.183 128.705H117.592V136H133.273V100.409C133.273 89.3295 123.421 82.9545 110.092 82.9545C96.012 82.9545 88.0348 90.0455 86.7052 99.5909L102.08 100.136C102.796 96.7955 105.558 94.75 109.955 94.75C114.046 94.75 116.637 96.7273 116.637 100.239V100.409C116.637 103.614 113.16 104.295 104.228 105.08C93.6257 105.966 84.762 109.886 84.762 121.477C84.762 131.841 91.9552 136.886 101.978 136.886ZM107.126 125.977C103.273 125.977 100.546 124.136 100.546 120.659C100.546 117.284 103.205 115.239 107.944 114.523C111.046 114.08 114.864 113.398 116.739 112.409V117.386C116.739 122.5 112.444 125.977 107.126 125.977ZM132.907 155.636H149.577V127.511H149.918C152.032 132.352 156.736 136.75 164.645 136.75C176.236 136.75 185.577 127.682 185.577 109.852C185.577 91.375 175.691 82.9545 164.747 82.9545C156.463 82.9545 151.929 87.7955 149.918 92.6023H149.407V83.6364H132.907V155.636ZM149.236 109.818C149.236 101.261 152.782 95.9773 158.884 95.9773C165.054 95.9773 168.463 101.398 168.463 109.818C168.463 118.273 165.054 123.761 158.884 123.761C152.782 123.761 149.236 118.307 149.236 109.818ZM213.31 83.6364H203.866V71.0909H187.196V83.6364H180.276V95.9091H187.196V121.375C187.094 131.977 193.98 137.295 205.741 136.75C209.764 136.545 212.662 135.727 214.264 135.25L211.741 123.216C211.026 123.386 209.355 123.727 208.094 123.727C205.401 123.727 203.866 122.636 203.866 119.534V95.9091H213.31V83.6364ZM211.255 136H227.926V107.568C227.926 101.33 232.358 97.1364 238.324 97.1364C240.301 97.1364 243.267 97.4773 244.869 98.0227V83.5341C243.471 83.1591 241.733 82.9205 240.199 82.9205C234.471 82.9205 229.903 86.2614 227.994 93.1818H227.449V83.6364H211.255V136ZM244.477 136.989C249.147 136.989 253.272 133.034 253.34 128.125C253.272 123.284 249.147 119.364 244.477 119.364C239.568 119.364 235.545 123.284 235.613 128.125C235.545 133.034 239.568 136.989 244.477 136.989Z" fill="white"/>
</svg>
