<svg width="375" height="205" viewBox="0 0 375 205" fill="none" xmlns="http://www.w3.org/2000/svg">
<g clip-path="url(#clip0)">
<path d="M379.581 0L342.932 21.2534C306.283 42.5067 232.985 85.0134 159.686 92.0834C86.3877 99.3269 13.0892 70.6999 -60.2093 53.1334C-133.508 35.5668 -206.806 28.1932 -280.105 35.4367C-353.403 42.5067 -426.702 63.7601 -500 67.3167C-573.298 70.6999 -646.597 56.8202 -719.895 74.3867C-793.194 91.9533 -866.492 141.834 -939.791 162.957C-1013.09 184.34 -1086.39 176.967 -1159.69 177.097C-1232.98 176.967 -1306.28 184.34 -1379.58 166.47C-1452.88 148.773 -1526.18 106.267 -1599.48 95.6401C-1672.78 85.0134 -1746.07 106.267 -1819.37 123.963C-1892.67 141.834 -1965.97 155.713 -2039.27 145.217C-2112.57 134.46 -2185.86 99.3269 -2259.16 99.1968C-2332.46 99.3269 -2405.76 134.46 -2479.06 141.703C-2552.36 148.773 -2625.66 127.52 -2698.95 113.337C-2772.25 99.3269 -2845.55 91.9533 -2918.85 95.6401C-2992.15 99.3269 -3065.45 113.207 -3138.74 106.267C-3212.04 99.3269 -3285.34 70.6999 -3358.64 67.3167C-3431.94 63.7601 -3505.24 85.0134 -3578.54 88.5701C-3651.83 91.9533 -3725.13 78.0735 -3798.43 74.3867C-3871.73 70.6999 -3945.03 78.0735 -4018.33 99.1968C-4091.62 120.58 -4164.92 155.713 -4238.22 141.703C-4311.52 127.52 -4384.82 63.7601 -4458.12 35.4367C-4531.42 6.93987 -4604.71 14.3135 -4678.01 14.1834C-4751.31 14.3135 -4824.61 6.93987 -4861.26 3.55668L-4897.91 0V212.534H-4861.26C-4824.61 212.534 -4751.31 212.534 -4678.01 212.534C-4604.71 212.534 -4531.42 212.534 -4458.12 212.534C-4384.82 212.534 -4311.52 212.534 -4238.22 212.534C-4164.92 212.534 -4091.62 212.534 -4018.33 212.534C-3945.03 212.534 -3871.73 212.534 -3798.43 212.534C-3725.13 212.534 -3651.83 212.534 -3578.54 212.534C-3505.24 212.534 -3431.94 212.534 -3358.64 212.534C-3285.34 212.534 -3212.04 212.534 -3138.74 212.534C-3065.45 212.534 -2992.15 212.534 -2918.85 212.534C-2845.55 212.534 -2772.25 212.534 -2698.95 212.534C-2625.66 212.534 -2552.36 212.534 -2479.06 212.534C-2405.76 212.534 -2332.46 212.534 -2259.16 212.534C-2185.86 212.534 -2112.57 212.534 -2039.27 212.534C-1965.97 212.534 -1892.67 212.534 -1819.37 212.534C-1746.07 212.534 -1672.78 212.534 -1599.48 212.534C-1526.18 212.534 -1452.88 212.534 -1379.58 212.534C-1306.28 212.534 -1232.98 212.534 -1159.69 212.534C-1086.39 212.534 -1013.09 212.534 -939.791 212.534C-866.492 212.534 -793.194 212.534 -719.895 212.534C-646.597 212.534 -573.298 212.534 -500 212.534C-426.702 212.534 -353.403 212.534 -280.105 212.534C-206.806 212.534 -133.508 212.534 -60.2093 212.534C13.0892 212.534 86.3877 212.534 159.686 212.534C232.985 212.534 306.283 212.534 342.932 212.534H379.581V0Z" fill="url(#paint0_linear)"/>
<path opacity="0.9" d="M379.581 148.773L342.932 127.52C306.283 106.267 232.985 63.76 159.686 63.76C86.3877 63.76 13.0892 106.267 -60.2093 113.337C-133.508 120.58 -206.806 91.9532 -280.105 88.57C-353.403 85.0133 -426.702 106.267 -500 127.52C-573.298 148.773 -646.597 170.027 -719.895 162.957C-793.194 155.713 -866.492 120.58 -939.791 109.823C-1013.09 99.3268 -1086.39 113.207 -1159.69 120.45C-1232.98 127.52 -1306.28 127.52 -1379.58 138.147C-1452.88 148.773 -1526.18 170.027 -1599.48 152.33C-1672.78 134.46 -1746.07 78.0735 -1819.37 49.5766C-1892.67 21.2533 -1965.97 21.2533 -2039.27 31.88C-2112.57 42.5066 -2185.86 63.76 -2259.16 67.3167C-2332.46 70.6999 -2405.76 56.8201 -2479.06 56.69C-2552.36 56.8201 -2625.66 70.6999 -2698.95 70.83C-2772.25 70.6999 -2845.55 56.8201 -2918.85 53.1333C-2992.15 49.4465 -3065.45 56.8201 -3138.74 81.4567C-3212.04 106.267 -3285.34 148.773 -3358.64 148.773C-3431.94 148.773 -3505.24 106.267 -3578.54 81.4567C-3651.83 56.8201 -3725.13 49.4465 -3798.43 49.5766C-3871.73 49.4465 -3945.03 56.8201 -4018.33 67.3167C-4091.62 78.0735 -4164.92 91.9532 -4238.22 109.823C-4311.52 127.52 -4384.82 148.773 -4458.12 152.33C-4531.42 155.713 -4604.71 141.834 -4678.01 123.963C-4751.31 106.267 -4824.61 85.0134 -4861.26 74.3867L-4897.91 63.76V212.533H-4861.26C-4824.61 212.533 -4751.31 212.533 -4678.01 212.533C-4604.71 212.533 -4531.42 212.533 -4458.12 212.533C-4384.82 212.533 -4311.52 212.533 -4238.22 212.533C-4164.92 212.533 -4091.62 212.533 -4018.33 212.533C-3945.03 212.533 -3871.73 212.533 -3798.43 212.533C-3725.13 212.533 -3651.83 212.533 -3578.54 212.533C-3505.24 212.533 -3431.94 212.533 -3358.64 212.533C-3285.34 212.533 -3212.04 212.533 -3138.74 212.533C-3065.45 212.533 -2992.15 212.533 -2918.85 212.533C-2845.55 212.533 -2772.25 212.533 -2698.95 212.533C-2625.66 212.533 -2552.36 212.533 -2479.06 212.533C-2405.76 212.533 -2332.46 212.533 -2259.16 212.533C-2185.86 212.533 -2112.57 212.533 -2039.27 212.533C-1965.97 212.533 -1892.67 212.533 -1819.37 212.533C-1746.07 212.533 -1672.78 212.533 -1599.48 212.533C-1526.18 212.533 -1452.88 212.533 -1379.58 212.533C-1306.28 212.533 -1232.98 212.533 -1159.69 212.533C-1086.39 212.533 -1013.09 212.533 -939.791 212.533C-866.492 212.533 -793.194 212.533 -719.895 212.533C-646.597 212.533 -573.298 212.533 -500 212.533C-426.702 212.533 -353.403 212.533 -280.105 212.533C-206.806 212.533 -133.508 212.533 -60.2093 212.533C13.0892 212.533 86.3877 212.533 159.686 212.533C232.985 212.533 306.283 212.533 342.932 212.533H379.581V148.773Z" fill="url(#paint1_linear)"/>
</g>
<defs>
<linearGradient id="paint0_linear" x1="379.581" y1="212.534" x2="379.581" y2="0" gradientUnits="userSpaceOnUse">
<stop stop-color="#20003D"/>
<stop offset="1" stop-color="#47137C"/>
</linearGradient>
<linearGradient id="paint1_linear" x1="379.581" y1="212.533" x2="379.581" y2="25.3401" gradientUnits="userSpaceOnUse">
<stop stop-color="#7B2CBF"/>
<stop offset="1" stop-color="#9D4EDD"/>
</linearGradient>
<clipPath id="clip0">
<rect width="879.581" height="212.534" fill="white" transform="matrix(-1 0 0 1 379.581 0)"/>
</clipPath>
</defs>
</svg>
